# xmcd CD database file
#
# Track frame offsets:
#	150
#	17187
#	28750
#	36866
#	52055
#	66147
#	77255
#	88963
#	104095
#	114986
#
# Disc length: 1598 seconds
#
# Revision: 0
# Processed by: cddbd v1.5.2PL0 Copyright (c) Steve Scherf et al.
# Submitted via: CDex 1.51
#
DISCID=82063c0a
DTITLE=The RattleSnakes - Tidal Living
DYEAR=2008
DGENRE=Alternative Rock
TTITLE0=01 Iceberg
TTITLE1=Floored
TTITLE2=High Flyn'
TTITLE3=Hey, Dave
TTITLE4=End Of Epidemic
TTITLE5=The Eight
TTITLE6=Untitled
TTITLE7=Cheryl
TTITLE8=Joshua Chamberlain
TTITLE9=Organic Produce
EXTD=YEAR: 2008
EXTT0=
EXTT1=
EXTT2=
EXTT3=
EXTT4=
EXTT5=
EXTT6=
EXTT7=
EXTT8=
EXTT9=
PLAYORDER=
